<?xml version="1.0" ?>
<svg  height="257.13" viewBox="0 0 257.13 257.13" width="257.13" xmlns="http://www.w3.org/2000/svg">
    <path d="M225.14,59.78c-2.4-3.27-5.78-5.94-9.08-8.42a13.23,13.23,0,0,0-6.76-2.65c-3.61-.2-7.27.56-10.85.91,0-3.42.12-6.91,0-10.38a11.58,11.58,0,0,0-10.9-10.85c-5.44-.23-10.32.7-14.67,4.54-1.79,1.58-3.18,3.23-3.21,5.21-.08,5.61.4,11.24.59,16.86,0,1.44.28,3.18-.38,4.29a42.85,42.85,0,0,1-5.34,7c-4.12,4.49-8.39,8.85-12.65,13.2-5.42,5.54-11.13,10.82-16.29,16.58-8.16,9.12-16.56,18-26.05,25.71-2.81,2.29-5.31,5-8.07,7.31-4.77,4.08-9.66,8-14.44,12.1-2.38,2-4.63,4.23-6.92,6.37-3.24,3-6.44,6.08-9.71,9.07a7.17,7.17,0,0,1-5.5,1.79,56.07,56.07,0,0,0-9-.15c-3.57.4-7.62.52-10.49,2.31-5.6,3.52-10.23,8.55-12.33,15-1.92,5.89-1.5,11.88,4.42,15.1C41.8,193,46.4,194.23,51.41,193c4.07-1,6.78.53,8.75,4.23A52.79,52.79,0,0,0,63.45,202c-.32,3-.77,5.92-.9,8.89a5.77,5.77,0,0,0,1,3.72,45.23,45.23,0,0,0,6.32,6.14,22.1,22.1,0,0,0,6.54,3.58A36.54,36.54,0,0,0,84.44,226a55.82,55.82,0,0,0,12-.31c6-.75,9.18-3.92,11.17-9,2.93-7.48,3.23-14.8-1.67-21.71a9.65,9.65,0,0,1-.75-1.29,15.16,15.16,0,0,1-1.69-5.69,9.2,9.2,0,0,1,2.28-7.18l.14-.16q9.15-9.87,18.32-19.7c2.34-2.49,4.84-4.82,7.11-7.37,3.17-3.56,6.2-7.26,9.29-10.89.75-.89,1.59-1.7,2.27-2.64,6-8.28,12-16.58,18-24.85a14.5,14.5,0,0,1,1.5-1.29c2.17-2.25,4.33-4.49,6.44-6.79s3.78-4.55,5.91-6.57a73.25,73.25,0,0,1,8.91-7.52c1.95-1.33,4.6-2.54,6.8-2.34,3.27.3,6.62.37,9.79.93a54.68,54.68,0,0,0,18.32-.21c3.94-.62,6.21-3,8.31-6.2,2.26-3.38,2.34-7,2.82-10.81C230.44,68.67,228.22,64,225.14,59.78ZM129.2,140c-3.62,4.17-7.76,7.88-11.39,12-.9,1-1.8,2.05-2.68,3.09a96.7,96.7,0,0,0-7.57,9.82c-.55.83-1.08,1.67-1.59,2.54a33.72,33.72,0,0,1-2,3,60.19,60.19,0,0,1-6.11,6.94c-3.45,3.44-4.48,6.88-2.81,11.62,1.37,3.89,2.36,7.87,4.6,11.4,3.16,5,.63,9.44-1.59,13.83a2.82,2.82,0,0,1-2,1.26c-4.26.39-8.62,1.28-12.77.7-3.39-.47-6.54-2.72-9.75-4.28a6.39,6.39,0,0,1-1.14-.71c-.56-.4-1.09-.85-1.63-1.24-.49-5.9,1.4-9.3,6.84-11a5.41,5.41,0,0,0,2.63-1.64,5.62,5.62,0,0,0,1.16-3c.94-7.17-4.71-15.45-11.79-17.19-1-.24-3,.43-3.25,1.12a7.89,7.89,0,0,0-.18,5.07c.69,1.75,2.39,3.11,3.6,4.68,1.7,2.2,1.68,2.21,1.33,6.12-2.21.56-4-.28-4.56-2.38-.78-2.84-2.83-4-5.07-5l-.9-.4a2.5,2.5,0,0,0-.25-.09,8.82,8.82,0,0,1-2.05-.79,9.1,9.1,0,0,0-8-1.19,10.24,10.24,0,0,1-5.93,0,9.26,9.26,0,0,1-4-2.81,18.25,18.25,0,0,1,1-3.72c2.74-5.51,6.51-10,13-11a37.68,37.68,0,0,1,7.66-.29c4,.19,6.81-1.31,9.38-4.37a68.77,68.77,0,0,1,8.66-8.12q15.63-13,31.42-25.87c2.52-2.06,5.66-3.43,8-5.69,6.67-6.55,13-13.44,19.57-20.12,6-6.13,12.33-12,18.08-18.32,5-5.49,11-10,14.75-16.6.38-.67,1.31-1,1.89-1.58,2.66-2.61,4.73-5.54,4.58-9.49-.18-5-.55-9.92-.53-14.88a7.65,7.65,0,0,1,1.71-4.35c1.5-1.85,7.9-2.63,9.8-1.32a5,5,0,0,1,2,2.71,42,42,0,0,1,1,6.46,20.89,20.89,0,0,1-.45,5.79c-.87,3.87-2.28,8.14.51,12,.38.54.51,1.49,1,1.68,1.58.63,3.32,1.49,4.9,1.34,1.34-.13,1.52-1.84.67-3.9-.11-.26-.23-.53-.37-.8-.46-.87-.94-1.73-1.35-2.62-.25-.56-.41-1.17-.69-2,4.89-1.86,10.05-2.22,14.36-.73.39.14.77.31,1.14.48,3.85,1.72,7.09,5.16,9.46,8.95a16.67,16.67,0,0,1,2.62,11.85,8.6,8.6,0,0,1-6.89,7.48,52.56,52.56,0,0,1-19.52.9,9.65,9.65,0,0,1-3.14-1.32c-5.41-2.85-10-2.44-14.65,1.35-6.66,5.42-13.23,10.88-18.33,17.94-1.89,2.61-4.91,4.36-7,6.82-7,8.12-13.9,16.37-20.88,24.53C132.18,136.5,130.7,138.24,129.2,140Zm-33,21.55a30.62,30.62,0,0,1,3.45,2.83c-1.12,1-1.76,2-2.41,2a2.59,2.59,0,0,1-2.63-2.92C94.66,162.73,96.11,161.45,96.23,161.52Zm-3.74,6.31a27.3,27.3,0,0,1,.19,5,2.72,2.72,0,0,1-3.18,2.42c-1.64-.13-2.18-1.2-2.53-2.58C86.11,169.31,87.82,167.6,92.49,167.83Z"
          fill="#b3b3b3" stroke="#b3b3b3" />
</svg>