<svg version="1.0" xmlns="http://www.w3.org/2000/svg" width="512" height="512" viewBox="0 0 512.000000 512.000000" preserveAspectRatio="xMidYMid meet">
	<g transform="translate(-128 256) scale(0.1 -0.1) rotate(-45 0 0)" fill="#b3b3b3" stroke="#b3b3b3" opacity="1">
		<path d="M2259 5111c-63-13-151-62-186-108-41-43-43-44-81-33-109 29-242 6-335-59-131-90-194-262-152-417 27-101 77-166 205-268 126-100 217-206 280-327 31-60 81-219 230-740 105-365 199-675 209-689 25-35 79-39 108-8 20 21 23 47 42 298 12 151 24 293 26 315l5 40 91-4c112-4 135 2 154 38 13 26 13 36-1 87-45 174-59 198-115 196-50-1-72-29-66-82 3-25 9-55 12-67 7-22 6-22-77-16-79 5-85 4-113-19-28-24-29-29-40-164-6-76-15-132-18-124-4 8-63 209-131 447-69 237-136 458-150 491-60 143-170 292-288 391-160 136-179 154-198 192-63 122-14 266 111 330 49 25 90 27 194 9 76-12 83-12 120 8 22 11 57 38 77 60 53 56 100 76 178 76 74 0 126-22 177-76 71-75 81-168 33-298-87-236-106-471-55-672 46-180 77-274 97-290 45-39 118-8 118 49 0 15-18 90-40 168-76 269-70 459 24 700 27 70 31 92 31 180 0 92-3 106-32 167-62 131-185 216-324 223-41 2-90 0-110-4z" />
		<path d="M2970 3747c-15-7-31-25-38-41-13-25-10-35 34-128 27-55 57-106 68-114 47-33 116 0 116 55 0 30-78 199-101 217-25 20-53 24-79 11z" />
		<path d="M3455 3590c-12-4-44-33-74-63-44-46-54-62-53-89 1-40 32-68 75-68 24 0 43 13 89 58 49 49 58 64 58 94 0 52-50 87-95 68z" />
		<path d="M3213 3190c-13-5-28-19-36-32-8-13-61-147-117-298-57-151-104-277-107-279-2-3-41 7-86 22-101 33-137 34-163 6-18-20-19-43-19-490l0-468 22-22c30-30 80-30 105 0 17 22 18 49 18 422 0 327 2 399 13 399 8 0 40-9 72-20 67-23 104-25 128-7 10 6 39 71 66 142l49 130 5-790c4-865 2-828 66-1005 38-104 86-192 162-297 74-102 89-137 89-207 0-138-101-240-240-241-56 0-75 5-137 38-90 46-121 47-206 2-78-41-135-52-197-35-130 34-207 156-180 285 8 38 29 78 79 147 163 229 231 429 231 677 0 110-2 119-23 139-29 27-67 28-98 3-22-18-24-28-30-162-10-237-60-374-211-580-81-111-102-169-102-275-1-85 2-96 37-167 61-123 159-197 290-219 83-14 172 1 249 41l56 30 69-35c261-133 563 56 563 353 0 100-25 164-108 281-122 169-181 311-202 482-6 52-10 450-10 1036 0 892-1 953-17 972-22 25-51 33-80 22z" />
		<path d="M2342 2166c-66-68-72-87-46-124 39-56 89-45 163 33 37 39 51 62 51 83 0 40-33 72-74 72-27 0-43-11-94-64z" />
	</g>
</svg>