<?xml version="1.0" encoding="UTF-8" standalone="no" ?>
<!DOCTYPE svg PUBLIC "-//W3C//DTD SVG 1.1//EN" "http://www.w3.org/Graphics/SVG/1.1/DTD/svg11.dtd">
<svg xmlns="http://www.w3.org/2000/svg" xmlns:xlink="http://www.w3.org/1999/xlink" version="1.1" width="640" height="480" viewBox="0 0 640 480" xml:space="preserve">
<desc>Created with Fabric.js 3.6.6</desc>
<defs>
</defs>
<g transform="matrix(-0.1 0 0 -0.1 320.68 270.38)"  >
<path style="stroke: none; stroke-width: 0; stroke-dasharray: 1 10; stroke-linecap: butt; stroke-dashoffset: 0; stroke-linejoin: miter; stroke-miterlimit: 4; fill: rgb(179,179,179); fill-rule: nonzero; opacity: 1;"  transform=" translate(-2559.74, -2561.8)" d="M 2250 4003 c -143 -7 -409 -35 -553 -59 c -576 -94 -1002 -285 -1134 -505 c -35 -60 -524 -1211 -548 -1292 c -64 -214 80 -440 395 -616 c 355 -200 927 -341 1630 -403 c 220 -19 869 -16 1100 5 c 772 73 1362 239 1705 482 c 84 59 195 180 227 246 c 49 102 60 195 33 287 c -21 70 -510 1226 -543 1282 c -202 347 -1043 587 -2032 578 c -118 -1 -244 -3 -280 -5 z m 635 -173 c 530 -33 959 -127 1260 -275 c 117 -58 206 -122 250 -179 c 38 -50 466 -1066 460 -1092 c -2 -11 -37 -46 -76 -78 c -294 -234 -847 -396 -1609 -473 c -222 -22 -936 -25 -1160 -5 c -792 72 -1384 243 -1680 487 c -33 28 -63 59 -65 70 c -7 25 423 1042 461 1092 c 69 90 271 204 495 277 c 447 146 1073 213 1664 176 z m -2609 -1786 c 315 -237 954 -418 1719 -486 c 201 -17 939 -18 1135 0 c 791 71 1444 262 1748 510 c 64 52 76 46 68 -34 c -26 -291 -624 -571 -1481 -693 c -479 -69 -1091 -78 -1605 -25 c -924 96 -1636 392 -1686 703 c -6 36 0 91 10 91 c 3 0 44 -30 92 -66 z" stroke-linecap="round" />
</g>
<g transform="matrix(-0.1 0 0 -0.1 318.31 203.08)"  >
<path style="stroke: none; stroke-width: 0; stroke-dasharray: 1 10; stroke-linecap: butt; stroke-dashoffset: 0; stroke-linejoin: miter; stroke-miterlimit: 4; fill: rgb(179,179,179); fill-rule: nonzero; opacity: 1;"  transform=" translate(-2559.97, -3244.78)" d="M 2270 3663 c -759 -41 -1217 -161 -1310 -344 c -39 -75 -21 -148 53 -216 c 154 -142 536 -234 1137 -274 c 227 -15 820 -6 1030 15 c 656 68 1000 206 1000 401 c 0 218 -461 369 -1269 415 c -167 9 -500 11 -641 3 z m 795 -183 c 473 -41 849 -130 930 -220 l 20 -22 l -25 -20 c -91 -75 -382 -152 -730 -192 c -231 -27 -405 -36 -700 -36 c -486 0 -879 41 -1188 125 c -103 28 -229 82 -251 109 c -51 62 231 163 614 220 c 135 20 294 36 467 46 c 174 10 698 4 863 -10 z" stroke-linecap="round" />
</g>
<g transform="matrix(0.38 0 0 0.38 321.77 299.78)"  >
<path style="stroke: rgb(179,179,179); stroke-width: 1; stroke-dasharray: none; stroke-linecap: butt; stroke-dashoffset: 0; stroke-linejoin: miter; stroke-miterlimit: 4; fill: rgb(179,179,179); fill-rule: nonzero; opacity: 1;"  transform=" translate(-130.96, -127.27)" d="M 225.14 59.78 c -2.4 -3.27 -5.78 -5.94 -9.08 -8.42 a 13.23 13.23 0 0 0 -6.76 -2.65 c -3.61 -0.2 -7.27 0.56 -10.85 0.91 c 0 -3.42 0.12 -6.91 0 -10.38 a 11.58 11.58 0 0 0 -10.9 -10.85 c -5.44 -0.23 -10.32 0.7 -14.67 4.54 c -1.79 1.58 -3.18 3.23 -3.21 5.21 c -0.08 5.61 0.4 11.24 0.59 16.86 c 0 1.44 0.28 3.18 -0.38 4.29 a 42.85 42.85 0 0 1 -5.34 7 c -4.12 4.49 -8.39 8.85 -12.65 13.2 c -5.42 5.54 -11.13 10.82 -16.29 16.58 c -8.16 9.12 -16.56 18 -26.05 25.71 c -2.81 2.29 -5.31 5 -8.07 7.31 c -4.77 4.08 -9.66 8 -14.44 12.1 c -2.38 2 -4.63 4.23 -6.92 6.37 c -3.24 3 -6.44 6.08 -9.71 9.07 a 7.17 7.17 0 0 1 -5.5 1.79 a 56.07 56.07 0 0 0 -9 -0.15 c -3.57 0.4 -7.62 0.52 -10.49 2.31 c -5.6 3.52 -10.23 8.55 -12.33 15 c -1.92 5.89 -1.5 11.88 4.42 15.1 C 41.8 193 46.4 194.23 51.41 193 c 4.07 -1 6.78 0.53 8.75 4.23 A 52.79 52.79 0 0 0 63.45 202 c -0.32 3 -0.77 5.92 -0.9 8.89 a 5.77 5.77 0 0 0 1 3.72 a 45.23 45.23 0 0 0 6.32 6.14 a 22.1 22.1 0 0 0 6.54 3.58 A 36.54 36.54 0 0 0 84.44 226 a 55.82 55.82 0 0 0 12 -0.31 c 6 -0.75 9.18 -3.92 11.17 -9 c 2.93 -7.48 3.23 -14.8 -1.67 -21.71 a 9.65 9.65 0 0 1 -0.75 -1.29 a 15.16 15.16 0 0 1 -1.69 -5.69 a 9.2 9.2 0 0 1 2.28 -7.18 l 0.14 -0.16 q 9.15 -9.87 18.32 -19.7 c 2.34 -2.49 4.84 -4.82 7.11 -7.37 c 3.17 -3.56 6.2 -7.26 9.29 -10.89 c 0.75 -0.89 1.59 -1.7 2.27 -2.64 c 6 -8.28 12 -16.58 18 -24.85 a 14.5 14.5 0 0 1 1.5 -1.29 c 2.17 -2.25 4.33 -4.49 6.44 -6.79 s 3.78 -4.55 5.91 -6.57 a 73.25 73.25 0 0 1 8.91 -7.52 c 1.95 -1.33 4.6 -2.54 6.8 -2.34 c 3.27 0.3 6.62 0.37 9.79 0.93 a 54.68 54.68 0 0 0 18.32 -0.21 c 3.94 -0.62 6.21 -3 8.31 -6.2 c 2.26 -3.38 2.34 -7 2.82 -10.81 C 230.44 68.67 228.22 64 225.14 59.78 Z M 129.2 140 c -3.62 4.17 -7.76 7.88 -11.39 12 c -0.9 1 -1.8 2.05 -2.68 3.09 a 96.7 96.7 0 0 0 -7.57 9.82 c -0.55 0.83 -1.08 1.67 -1.59 2.54 a 33.72 33.72 0 0 1 -2 3 a 60.19 60.19 0 0 1 -6.11 6.94 c -3.45 3.44 -4.48 6.88 -2.81 11.62 c 1.37 3.89 2.36 7.87 4.6 11.4 c 3.16 5 0.63 9.44 -1.59 13.83 a 2.82 2.82 0 0 1 -2 1.26 c -4.26 0.39 -8.62 1.28 -12.77 0.7 c -3.39 -0.47 -6.54 -2.72 -9.75 -4.28 a 6.39 6.39 0 0 1 -1.14 -0.71 c -0.56 -0.4 -1.09 -0.85 -1.63 -1.24 c -0.49 -5.9 1.4 -9.3 6.84 -11 a 5.41 5.41 0 0 0 2.63 -1.64 a 5.62 5.62 0 0 0 1.16 -3 c 0.94 -7.17 -4.71 -15.45 -11.79 -17.19 c -1 -0.24 -3 0.43 -3.25 1.12 a 7.89 7.89 0 0 0 -0.18 5.07 c 0.69 1.75 2.39 3.11 3.6 4.68 c 1.7 2.2 1.68 2.21 1.33 6.12 c -2.21 0.56 -4 -0.28 -4.56 -2.38 c -0.78 -2.84 -2.83 -4 -5.07 -5 l -0.9 -0.4 a 2.5 2.5 0 0 0 -0.25 -0.09 a 8.82 8.82 0 0 1 -2.05 -0.79 a 9.1 9.1 0 0 0 -8 -1.19 a 10.24 10.24 0 0 1 -5.93 0 a 9.26 9.26 0 0 1 -4 -2.81 a 18.25 18.25 0 0 1 1 -3.72 c 2.74 -5.51 6.51 -10 13 -11 a 37.68 37.68 0 0 1 7.66 -0.29 c 4 0.19 6.81 -1.31 9.38 -4.37 a 68.77 68.77 0 0 1 8.66 -8.12 q 15.63 -13 31.42 -25.87 c 2.52 -2.06 5.66 -3.43 8 -5.69 c 6.67 -6.55 13 -13.44 19.57 -20.12 c 6 -6.13 12.33 -12 18.08 -18.32 c 5 -5.49 11 -10 14.75 -16.6 c 0.38 -0.67 1.31 -1 1.89 -1.58 c 2.66 -2.61 4.73 -5.54 4.58 -9.49 c -0.18 -5 -0.55 -9.92 -0.53 -14.88 a 7.65 7.65 0 0 1 1.71 -4.35 c 1.5 -1.85 7.9 -2.63 9.8 -1.32 a 5 5 0 0 1 2 2.71 a 42 42 0 0 1 1 6.46 a 20.89 20.89 0 0 1 -0.45 5.79 c -0.87 3.87 -2.28 8.14 0.51 12 c 0.38 0.54 0.51 1.49 1 1.68 c 1.58 0.63 3.32 1.49 4.9 1.34 c 1.34 -0.13 1.52 -1.84 0.67 -3.9 c -0.11 -0.26 -0.23 -0.53 -0.37 -0.8 c -0.46 -0.87 -0.94 -1.73 -1.35 -2.62 c -0.25 -0.56 -0.41 -1.17 -0.69 -2 c 4.89 -1.86 10.05 -2.22 14.36 -0.73 c 0.39 0.14 0.77 0.31 1.14 0.48 c 3.85 1.72 7.09 5.16 9.46 8.95 a 16.67 16.67 0 0 1 2.62 11.85 a 8.6 8.6 0 0 1 -6.89 7.48 a 52.56 52.56 0 0 1 -19.52 0.9 a 9.65 9.65 0 0 1 -3.14 -1.32 c -5.41 -2.85 -10 -2.44 -14.65 1.35 c -6.66 5.42 -13.23 10.88 -18.33 17.94 c -1.89 2.61 -4.91 4.36 -7 6.82 c -7 8.12 -13.9 16.37 -20.88 24.53 C 132.18 136.5 130.7 138.24 129.2 140 Z m -33 21.55 a 30.62 30.62 0 0 1 3.45 2.83 c -1.12 1 -1.76 2 -2.41 2 a 2.59 2.59 0 0 1 -2.63 -2.92 C 94.66 162.73 96.11 161.45 96.23 161.52 Z m -3.74 6.31 a 27.3 27.3 0 0 1 0.19 5 a 2.72 2.72 0 0 1 -3.18 2.42 c -1.64 -0.13 -2.18 -1.2 -2.53 -2.58 C 86.11 169.31 87.82 167.6 92.49 167.83 Z" stroke-linecap="round" />
</g>
</svg>