<?xml version="1.0" standalone="no"?>
<svg version="1.0" xmlns="http://www.w3.org/2000/svg"
 width="20" height="20" viewBox="0 0 175 180"
 preserveAspectRatio="xMidYMid meet" >

<g transform="translate(0.000000,180.000000) scale(0.100000,-0.100000)"
fill="#b3b3b3" stroke="#b3b3b3" stroke-width="15">

<!--<path d="M894 843 m40,0 a10,10 0 1,0 -20,0 a10,10 0 1,0 20,0" fill="red"/>-->

<path d="M284 1623 c13 -32 26 -67 30 -77 3 -10 9 -17 12 -14 7 7 -47 148 -56
148 -5 0 2 -26 14 -57z"/>
<path d="M884 1623 c13 -32 26 -67 30 -77 3 -10 9 -17 12 -14 7 7 -47 148 -56
148 -5 0 2 -26 14 -57z"/>
<path d="M384 1343 c13 -32 26 -67 30 -77 3 -10 9 -17 12 -14 7 7 -47 148 -56
148 -5 0 2 -26 14 -57z"/>
<path d="M984 1343 c13 -32 26 -60 30 -77 3 -10 9 -17 12 -14 7 7 -47 148 -56
148 -5 0 2 -26 14 -57z"/>

<path d="M278 1263 c12 -2 32 -2 45 0 12 2 2 4 -23 4 -25 0 -35 -2 -22 -4z"/>
<path d="M478 1263 c12 -2 32 -2 45 0 12 2 2 4 -23 4 -25 0 -35 -2 -22 -4z"/>
<path d="M578 1263 c12 -2 32 -2 45 0 12 2 2 4 -23 4 -25 0 -35 -2 -22 -4z"/>
<path d="M678 1263 c12 -2 32 -2 45 0 12 2 2 4 -23 4 -25 0 -35 -2 -22 -4z"/>
<path d="M778 1263 c12 -2 32 -2 45 0 12 2 2 4 -23 4 -25 0 -35 -2 -22 -4z"/>
<path d="M878 1263 c12 -2 32 -2 45 0 12 2 2 4 -23 4 -25 0 -35 -2 -22 -4z"/>

<path d="M190 1055 l0 -75 10 0 0 150 -10 0 0 -75z"/>
<path d="M390 1055 l0 -75 10 0 0 150 -10 0 0 -75z"/>
<path d="M1184 1073 c13 -32 26 -67 30 -77 3 -10 9 -17 12 -14 7 7 -47 148
-56 148 -5 0 2 -26 14 -57z"/>
<path d="M778 993 c12 -2 32 -2 45 0 12 2 2 4 -23 4 -25 0 -35 -2 -22 -4z"/>
<path d="M878 993 c12 -2 32 -2 45 0 12 2 2 4 -23 4 -25 0 -35 -2 -22 -4z"/>
<path d="M1278 993 c12 -2 32 -2 45 0 12 2 2 4 -23 4 -25 0 -35 -2 -22 -4z"/>
<path d="M1378 993 c12 -2 32 -2 45 0 12 2 2 4 -23 4 -25 0 -35 -2 -22 -4z"/>
<path d="M1478 993 c12 -2 32 -2 45 0 12 2 2 4 -23 4 -25 0 -35 -2 -22 -4z"/>
<path d="M190 775 l0 -75 10 0 0 150 -10 0 0 -75z"/>
<path d="M390 775 l0 -75 10 0 0 150 -10 0 0 -75z"/>
<path d="M690 775 l0 -75 10 0 0 150 -10 0 0 -75z"/>

<path d="M1014 834 c-4 -10 -17 -45 -30 -76 -12 -32 -19 -58 -14 -58 9 0 63
141 56 148 -3 3 -9 -4 -12 -14z"/>
<path d="M1590 775 l0 -75 10 0 0 150 -10 0 0 -75z"/>
<path d="M778 713 c12 -2 32 -2 45 0 12 2 2 4 -23 4 -25 0 -35 -2 -22 -4z"/>
<path d="M878 713 c12 -2 32 -2 45 0 12 2 2 4 -23 4 -25 0 -35 -2 -22 -4z"/>
<path d="M190 505 l0 -75 10 0 0 150 -10 0 0 -75z"/>
<path d="M390 505 l0 -75 10 0 0 150 -10 0 0 -75z"/>
<path d="M1514 564 c-4 -10 -17 -45 -30 -76 -12 -32 -19 -58 -14 -58 9 0 63
141 56 148 -3 3 -9 -4 -12 -14z"/>
<path d="M1078 443 c12 -2 32 -2 45 0 12 2 2 4 -23 4 -25 0 -35 -2 -22 -4z"/>
<path d="M1178 443 c12 -2 32 -2 45 0 12 2 2 4 -23 4 -25 0 -35 -2 -22 -4z"/>
<path d="M1278 443 c12 -2 32 -2 45 0 12 2 2 4 -23 4 -25 0 -35 -2 -22 -4z"/>
<path d="M1378 443 c12 -2 32 -2 45 0 12 2 2 4 -23 4 -25 0 -35 -2 -22 -4z"/>
<path d="M190 225 l0 -75 10 0 0 150 -10 0 0 -75z"/>
<path d="M390 225 l0 -75 10 0 0 150 -10 0 0 -75z"/>
<path d="M1014 284 c-4 -10 -17 -45 -30 -76 -12 -32 -2229 -58 -14 -58 9 0 63
141 56 148 -3 3 -9 -4 -12 -14z"/>
<path d="M278 163 c12 -2 32 -2 45 0 12 2 2 4 -23 4 -25 0 -35 -2 -22 -4z"/>
<path d="M478 163 c12 -2 32 -2 45 0 12 2 2 4 -23 4 -25 0 -35 -2 -22 -4z"/>
<path d="M578 163 c12 -2 32 -2 45 0 12 2 2 4 -23 4 -25 0 -35 -2 -22 -4z"/>
<path d="M678 163 c12 -2 32 -2 45 0 12 2 2 4 -23 4 -25 0 -35 -2 -22 -4z"/>
<path d="M778 163 c12 -2 32 -2 45 0 12 2 2 4 -23 4 -25 0 -35 -2 -22 -4z"/>
<path d="M878 163 c12 -2 32 -2 45 0 12 2 2 4 -23 4 -25 0 -35 -2 -22 -4z"/>
</g>
</svg>
