<?xml version="1.0" standalone="no"?>
<!DOCTYPE svg PUBLIC "-//W3C//DTD SVG 20010904//EN"
 "http://www.w3.org/TR/2001/REC-SVG-20010904/DTD/svg10.dtd">
<svg version="1.0" xmlns="http://www.w3.org/2000/svg"
 width="512.000000pt" height="512.000000pt" viewBox="0 0 512.000000 512.000000"
 preserveAspectRatio="xMidYMid meet" >

<g transform="translate(0.000000,512.000000) scale(0.100000,-0.100000)"
fill="#b3b3b3" stroke="#b3b3b3" >
<path d="M2310 4768 c-75 -29 -193 -147 -238 -239 -48 -100 -68 -199 -54 -277
36 -214 247 -252 426 -77 132 129 200 335 155 473 -39 123 -155 171 -289 120z
m151 -130 c19 -21 20 -32 17 -103 -4 -65 -11 -92 -37 -144 -63 -123 -182 -215
-246 -191 -43 16 -60 72 -46 149 36 195 230 375 312 289z"/>
<path d="M1608 4585 c-96 -35 -195 -134 -252 -250 -41 -83 -55 -139 -56 -219
0 -78 16 -128 57 -175 107 -125 315 -61 447 137 131 198 123 439 -17 503 -49
22 -126 24 -179 4z m137 -135 c58 -64 9 -244 -97 -356 -56 -60 -100 -84 -152
-84 -52 0 -71 40 -63 132 7 87 51 179 118 246 79 80 155 105 194 62z"/>
<path d="M2888 4445 c-129 -48 -263 -214 -297 -365 -14 -60 -14 -154 0 -201
15 -47 61 -104 101 -125 50 -26 137 -22 201 10 162 79 280 269 281 456 1 105
-25 167 -86 208 -49 32 -142 40 -200 17z m137 -135 c56 -62 2 -262 -100 -364
-54 -54 -100 -77 -146 -74 -59 4 -72 29 -65 125 3 54 12 88 36 136 71 144 218
239 275 177z"/>
<path d="M2020 3929 c-106 -21 -213 -100 -255 -188 -19 -38 -22 -41 -50 -34
-16 5 -73 8 -125 8 -81 0 -103 -4 -150 -26 -227 -107 -301 -391 -155 -591 137
-187 418 -210 584 -48 43 42 44 42 36 14 -36 -132 -19 -247 52 -352 81 -119
227 -183 372 -162 171 24 300 149 332 323 22 117 -13 237 -95 325 -40 43 -40
43 -22 70 38 59 58 117 63 185 21 282 -290 534 -587 476z m222 -149 c107 -40
195 -129 224 -228 30 -99 12 -166 -63 -238 -47 -46 -54 -57 -51 -85 2 -27 13
-40 62 -73 82 -57 120 -125 120 -215 1 -152 -108 -262 -257 -262 -75 0 -119
16 -172 62 -81 71 -110 209 -65 308 25 53 25 89 3 121 -26 38 -54 58 -95 68
-58 15 -83 5 -138 -59 -71 -82 -115 -104 -210 -104 -90 0 -138 22 -197 89 -97
110 -81 284 35 373 81 62 195 70 290 20 28 -15 60 -27 71 -27 26 0 61 46 61
79 0 14 9 44 19 66 56 121 206 164 363 105z"/>
<path d="M3088 3735 c-116 -37 -249 -185 -296 -329 -42 -127 -22 -279 44 -338
57 -50 141 -60 231 -27 77 29 194 145 240 240 94 191 73 381 -48 444 -42 22
-119 26 -171 10z m119 -137 c75 -82 -6 -314 -141 -408 -114 -78 -174 -42 -164
99 11 150 152 323 269 330 8 1 25 -9 36 -21z"/>
<path d="M2840 2324 c-31 -15 -84 -57 -120 -93 -202 -205 -215 -528 -24 -591
159 -53 361 102 439 335 48 142 24 277 -61 342 -31 23 -49 28 -108 31 -61 3
-79 0 -126 -24z m164 -120 c60 -59 12 -245 -91 -355 -150 -160 -270 -92 -205
118 30 95 99 187 176 234 38 23 99 25 120 3z"/>
<path d="M2194 2161 c-154 -37 -300 -209 -340 -402 -47 -227 94 -372 291 -298
46 17 76 38 131 93 109 109 167 237 167 372 0 58 -5 83 -27 128 -30 61 -61 88
-121 105 -44 12 -56 12 -101 2z m94 -146 c22 -20 32 -84 21 -139 -34 -186
-231 -368 -308 -285 -63 68 -11 250 104 366 78 78 141 98 183 58z"/>
<path d="M3480 2021 c-153 -29 -305 -206 -346 -402 -38 -181 45 -319 190 -319
152 0 323 163 383 364 33 110 14 238 -43 302 -41 45 -116 67 -184 55z m97
-157 c22 -34 18 -130 -7 -198 -46 -122 -162 -236 -240 -236 -61 0 -86 54 -71
151 14 87 57 166 125 235 84 84 157 102 193 48z"/>
<path d="M2540 1486 c-25 -7 -63 -22 -85 -33 -50 -26 -131 -111 -151 -159 -11
-27 -19 -34 -32 -29 -122 49 -284 14 -394 -84 -89 -79 -141 -229 -120 -342 33
-177 153 -298 329 -331 108 -20 233 19 327 103 33 29 47 37 42 24 -4 -11 -13
-48 -19 -82 -25 -141 43 -295 168 -377 151 -101 352 -84 485 40 153 143 163
393 21 547 l-41 44 20 26 c49 62 74 173 60 263 -29 177 -184 340 -371 389 -65
18 -177 18 -239 1z m221 -132 c174 -52 289 -217 257 -368 -8 -40 -22 -61 -69
-109 -33 -33 -59 -68 -59 -79 0 -20 21 -42 90 -91 97 -70 130 -213 74 -325
-104 -208 -415 -180 -480 44 -19 66 -14 123 17 192 26 59 19 100 -23 141 -39
38 -88 55 -133 47 -25 -5 -44 -20 -72 -55 -48 -62 -101 -97 -168 -111 -160
-33 -307 88 -308 254 -1 78 26 139 83 189 56 51 102 69 177 70 50 1 73 -5 126
-32 56 -28 67 -31 90 -20 27 12 30 18 42 79 31 151 182 225 356 174z"/>
<path d="M3610 1288 c-75 -29 -193 -147 -238 -239 -34 -70 -62 -173 -62 -230
0 -63 29 -141 69 -180 114 -114 319 -43 445 154 57 89 78 152 83 253 5 78 3
97 -16 139 -28 63 -46 83 -96 106 -52 24 -117 23 -185 -3z m144 -124 c39 -39
34 -149 -11 -245 -49 -106 -133 -187 -212 -204 -26 -6 -37 -3 -57 16 -107 100
76 446 238 449 15 0 34 -7 42 -16z"/>
</g>
</svg>
